<svg width="24" height="24" viewBox="0 0 24 24" fill="none" xmlns="http://www.w3.org/2000/svg">
<path d="M16.67 6.07238C16.2362 5.63863 15.6579 5.63863 15.3687 6.07238L9.87458 11.5665L11.1758 12.8678L16.67 7.37363C17.1037 7.08447 17.1037 6.50613 16.67 6.07238ZM20.8629 6.07238L11.3204 15.6149L7.995 12.2895C7.56125 11.8557 6.98292 11.8557 6.69375 12.2895C6.40458 12.7232 6.26 13.3015 6.69375 13.5907L10.7421 17.639C11.1758 18.0728 11.7542 18.0728 12.0433 17.639L22.3087 7.37363C22.7425 6.93988 22.7425 6.36155 22.3087 6.07238C21.7304 5.63863 21.1521 5.63863 20.8629 6.07238ZM1.055 13.5907L5.10333 17.639C5.53708 18.0728 6.11542 18.0728 6.40458 17.639L7.1275 16.9161L2.50084 12.2895C2.06709 11.8557 1.48875 11.8557 1.055 12.2895C0.621253 12.7232 0.765836 13.3015 1.055 13.5907Z" fill="white"/>
</svg>
