<svg width="563" height="392" viewBox="0 0 563 392" fill="none" xmlns="http://www.w3.org/2000/svg">
<circle cx="220.5" cy="198.5" r="168.5" transform="rotate(-90 220.5 198.5)" fill="url(#paint0_linear_1002_3911)"/>
<circle cx="48" cy="85" r="18" fill="url(#paint1_linear_1002_3911)"/>
<path d="M54.5385 91.5501C55.9071 90.3046 56.916 88.7143 57.4597 86.9455C58.0034 85.1766 58.062 83.2942 57.6293 81.495C57.167 79.7179 56.2284 78.1006 54.9148 76.8175C53.6012 75.5343 51.9623 74.634 50.1748 74.2135C48.4014 73.7542 46.5381 73.7723 44.774 74.2661C43.0098 74.7599 41.4078 75.7118 40.1306 77.0251C38.8183 78.3725 37.8685 80.0302 37.3697 81.8438C36.871 83.6573 36.8395 85.5676 37.2783 87.3966C37.5323 88.4791 38.0111 89.496 38.6836 90.3814C39.3561 91.2668 40.2073 92.0009 41.1819 92.5361C43.3472 93.671 45.8948 93.7363 48.2814 93.7934C48.4123 93.7812 48.5395 93.7434 48.6557 93.682C48.7719 93.6207 48.875 93.5371 48.9589 93.436C49.0428 93.3349 49.106 93.2182 49.1448 93.0926C49.1837 92.9671 49.1974 92.8351 49.1852 92.7043C49.173 92.5734 49.1352 92.4462 49.0739 92.33C49.0126 92.2138 48.929 92.1108 48.8278 92.0268C48.7267 91.9429 48.61 91.8797 48.4845 91.8409C48.3589 91.8021 48.227 91.7883 48.0961 91.8005C46.3263 91.869 44.5578 91.6348 42.8668 91.108C42.0983 90.826 41.3991 90.3829 40.8159 89.8085C40.2328 89.234 39.7793 88.5415 39.4858 87.7774C38.9648 86.3625 38.8158 84.8376 39.0528 83.3486C39.2898 81.8596 39.905 80.4564 40.8395 79.2731C41.7282 78.0812 42.9173 77.1465 44.2853 76.5645C45.6534 75.9825 47.1515 75.774 48.6265 75.9603C50.0734 76.1134 51.4549 76.6432 52.633 77.4969C53.8112 78.3507 54.7449 79.4984 55.3409 80.8257C55.9518 82.3564 56.0938 84.0343 55.7487 85.6459C55.4036 87.2575 54.5871 88.7301 53.403 89.8764C53.2945 89.9516 53.2019 90.0476 53.1307 90.1587C53.0594 90.2698 53.0109 90.394 52.9879 90.524C52.9649 90.654 52.9678 90.7872 52.9965 90.9161C53.0253 91.0449 53.0793 91.1668 53.1553 91.2747C53.3073 91.4908 53.5387 91.6379 53.7988 91.684C54.059 91.73 54.3268 91.6713 54.5437 91.5206L54.5385 91.5501Z" fill="white"/>
<path d="M52.5064 91.1587C52.5938 92.2891 52.9875 93.3743 53.6453 94.2977C54.303 95.2211 55.1999 95.9479 56.2396 96.4C56.3583 96.4564 56.487 96.4888 56.6182 96.4955C56.7495 96.5021 56.8807 96.4828 57.0045 96.4387C57.1283 96.3947 57.2422 96.3266 57.3398 96.2385C57.4373 96.1504 57.5165 96.0439 57.5728 95.9252C57.6292 95.8065 57.6616 95.6779 57.6683 95.5466C57.6749 95.4154 57.6556 95.2841 57.6115 95.1603C57.5675 95.0365 57.4994 94.9226 57.4113 94.8251C57.3232 94.7276 57.2168 94.6484 57.098 94.592C56.8867 94.5009 56.6813 94.3967 56.483 94.28C56.2803 94.1628 56.6446 94.4 56.483 94.28L56.3047 94.1976C56.2146 94.1336 56.1285 94.0641 56.047 93.9895C55.8692 93.8463 55.7245 93.6887 55.5584 93.5374C55.7668 93.7368 55.6348 93.622 55.5584 93.5374L55.4495 93.4064C55.3727 93.3168 55.3012 93.2227 55.2354 93.1247L55.0507 92.8483L54.9651 92.7011C54.9263 92.6333 54.8494 92.4369 54.9651 92.7011C54.8801 92.4931 54.7817 92.303 54.6967 92.095L54.5995 91.7833C54.5809 91.7313 54.5666 91.6778 54.5568 91.6234C54.4995 91.4304 54.6007 91.8343 54.5568 91.6234C54.5129 91.4125 54.4777 91.1524 54.4587 90.9154C54.4582 90.7765 54.4288 90.6392 54.3723 90.5122C54.3158 90.3853 54.2334 90.2715 54.1305 90.1782C54.0276 90.0849 53.9063 90.014 53.7745 89.9701C53.6427 89.9262 53.5031 89.9103 53.3648 89.9234C53.2265 89.9364 53.0924 89.9782 52.9711 90.0459C52.8498 90.1137 52.7439 90.206 52.6603 90.3169C52.5766 90.4278 52.517 90.555 52.4852 90.6903C52.4535 90.8255 52.4502 90.9659 52.4757 91.1025L52.5064 91.1587Z" fill="white"/>
<path d="M47.594 93.6007C48.8078 94.649 50.2174 95.4462 51.7413 95.9462C53.2653 96.4462 54.8732 96.639 56.4721 96.5135C56.603 96.5013 56.7301 96.4635 56.8464 96.4021C56.9626 96.3408 57.0656 96.2572 57.1496 96.1561C57.2335 96.055 57.2967 95.9383 57.3355 95.8127C57.3743 95.6872 57.388 95.5552 57.3759 95.4244C57.3637 95.2935 57.3259 95.1663 57.2646 95.0501C57.2033 94.9339 57.1196 94.8309 57.0185 94.7469C56.9174 94.663 56.8007 94.5998 56.6752 94.561C56.5496 94.5222 56.4176 94.5084 56.2868 94.5206C54.952 94.6248 53.6097 94.4629 52.338 94.0441C51.0663 93.6254 49.8904 92.9582 48.8786 92.0814C48.6743 91.9417 48.4254 91.8827 48.18 91.9159C47.9347 91.9491 47.7104 92.0721 47.5506 92.2612C47.3907 92.4502 47.3067 92.6918 47.3147 92.9393C47.3228 93.1867 47.4223 93.4224 47.594 93.6007Z" fill="white"/>
<path d="M42.6906 82.1302C46.1606 83.0408 49.6843 83.7326 53.241 84.2017C54.5014 84.4249 54.86 82.4573 53.5898 82.2324C50.0331 81.7633 46.5094 81.0714 43.0394 80.1608C42.7782 80.1146 42.5094 80.174 42.292 80.3259C42.0747 80.4779 41.9266 80.71 41.8803 80.9711C41.8341 81.2323 41.8934 81.5011 42.0454 81.7185C42.1974 81.9358 42.4294 82.0839 42.6906 82.1302Z" fill="white"/>
<path d="M41.9953 86.7493L47.5557 87.8661C47.8169 87.9123 48.0857 87.8529 48.3031 87.701C48.5205 87.549 48.6686 87.3169 48.7148 87.0558C48.7611 86.7946 48.7017 86.5258 48.5497 86.3084C48.3977 86.0911 48.1657 85.943 47.9045 85.8967L42.3441 84.78C42.0829 84.7337 41.8141 84.7931 41.5967 84.9451C41.3793 85.097 41.2312 85.3291 41.185 85.5903C41.1387 85.8514 41.1981 86.1203 41.3501 86.3376C41.5021 86.555 41.7341 86.7031 41.9953 86.7493Z" fill="white"/>
<circle cx="348.044" cy="369.045" r="18" transform="rotate(15 348.044 369.045)" fill="url(#paint2_linear_1002_3911)"/>
<path d="M351.514 364.026C347.746 364.562 344.957 367.364 343.244 370.609C343.135 370.852 343.126 371.128 343.22 371.377C343.314 371.626 343.503 371.827 343.746 371.936C343.989 372.046 344.265 372.055 344.514 371.961C344.763 371.867 344.964 371.677 345.073 371.435C345.771 370.053 346.732 368.822 347.903 367.809C348.989 366.87 350.312 366.247 351.727 366.008C351.858 365.993 351.984 365.951 352.098 365.886C352.213 365.822 352.313 365.735 352.394 365.632C352.475 365.528 352.535 365.41 352.57 365.283C352.605 365.157 352.615 365.024 352.599 364.894C352.583 364.763 352.542 364.637 352.477 364.523C352.413 364.409 352.326 364.308 352.223 364.227C352.119 364.146 352.001 364.086 351.874 364.051C351.748 364.016 351.615 364.006 351.485 364.022L351.514 364.026Z" fill="white"/>
<path d="M343.293 371.435C343.561 371.964 343.868 372.472 344.21 372.956C344.478 373.4 344.404 373.631 344.056 374.004C343.707 374.378 343.029 374.864 342.512 375.283C342.235 375.515 341.954 375.776 341.649 375.994C341.649 375.994 341.487 376.132 341.415 376.142C341.62 376.121 341.422 376.092 341.344 376.01C340.955 375.427 340.57 374.885 340.211 374.235C340.028 373.986 339.881 373.713 339.775 373.423C339.722 373.062 339.776 372.694 339.931 372.364C340.359 371.085 340.97 369.875 341.745 368.771C343.25 366.45 345.357 364.581 347.84 363.363C349.176 362.756 350.554 362.25 351.965 361.849C353.138 361.507 354.79 361.134 355.757 362.186C356.176 362.698 356.501 363.28 356.716 363.905C356.845 364.197 357.001 364.169 356.751 364.355C356.501 364.54 356.075 364.821 355.748 365.056L354.701 365.781C354.587 365.865 354.167 366.248 353.997 366.233C353.827 366.218 353.572 365.685 353.488 365.571L352.645 364.436C351.912 363.378 350.311 364.567 351.044 365.625C351.477 366.47 352.047 367.237 352.731 367.896C353.123 368.16 353.591 368.289 354.063 368.264C354.535 368.239 354.987 368.061 355.349 367.757C356.166 367.22 356.986 366.664 357.778 366.094C358.191 365.843 358.503 365.455 358.66 364.998C358.816 364.54 358.806 364.043 358.632 363.592C358.147 361.882 357.144 360.188 355.387 359.696C353.63 359.204 351.318 359.863 349.556 360.503C347.674 361.078 345.899 361.956 344.3 363.103C342.841 364.291 341.541 365.662 340.433 367.182C339.287 368.69 338.428 370.397 337.901 372.216C337.765 372.693 337.737 373.195 337.818 373.684C337.9 374.173 338.089 374.638 338.373 375.046C338.791 375.902 339.314 376.703 339.931 377.429C340.278 377.801 340.748 378.035 341.254 378.085C341.76 378.136 342.267 378 342.681 377.703C343.583 377.06 344.442 376.36 345.254 375.607C345.652 375.317 345.968 374.929 346.171 374.48C346.373 374.032 346.456 373.538 346.41 373.048C346.255 372.115 345.535 371.514 345.181 370.693C344.679 369.507 342.82 370.254 343.334 371.431L343.293 371.435Z" fill="white"/>
<circle cx="326" cy="40" r="18" fill="url(#paint3_linear_1002_3911)"/>
<path d="M316.333 35.9355C321.381 34.2249 326.397 32.3879 331.487 30.8005C332.045 30.6111 332.564 30.6781 332.75 31.2274C333.19 32.5249 333.63 33.8225 334.07 35.12C334.904 37.5825 335.742 40.0544 336.576 42.5169C336.778 43.1135 336.977 43.7007 336.512 44.1964C335.804 44.943 334.54 45.139 333.602 45.4568L322.73 49.1411C322.076 49.3626 320.587 50.1732 320.006 49.61C319.765 49.3185 319.603 48.9697 319.536 48.5973C319.34 48.0195 319.148 47.4513 318.952 46.8736L317.467 42.7098L315.938 38.54C315.806 38.1517 315.675 37.7634 315.543 37.3751C315.412 36.9868 315.313 36.9461 315.341 36.7784C315.411 36.3005 315.964 36.0606 316.361 35.9258C316.613 35.8407 316.82 35.6593 316.937 35.4215C317.055 35.1837 317.073 34.909 316.988 34.6578C316.902 34.4066 316.721 34.1995 316.483 34.0821C316.245 33.9647 315.971 33.9465 315.72 34.0316C315.066 34.18 314.478 34.5362 314.044 35.0469C313.609 35.5576 313.352 36.1953 313.311 36.8644C313.387 37.4263 313.548 37.9735 313.787 38.4875L314.586 40.6876L316.125 44.9807C316.594 46.3635 317.214 47.7265 317.607 49.135C317.797 50.0853 318.35 50.9241 319.149 51.4737C319.584 51.7027 320.066 51.83 320.558 51.8462C321.05 51.8624 321.539 51.767 321.989 51.5672C323.22 51.1499 324.451 50.7327 325.673 50.3187L332.35 48.0561C333.648 47.6164 334.996 47.2334 336.271 46.7274C336.819 46.5366 337.317 46.2237 337.726 45.8125C338.135 45.4012 338.446 44.9023 338.634 44.3534C338.8 43.3801 338.674 42.3794 338.272 41.4775C337.778 40.019 337.284 38.5604 336.789 37.1019L335.31 32.7358C335.072 32.0349 334.832 31.3246 334.591 30.6143C334.453 30.1305 334.181 29.6956 333.807 29.3596C333.304 29.0067 332.716 28.7956 332.104 28.7486C331.491 28.7016 330.878 28.8203 330.327 29.0922L315.694 34.0507C315.469 34.1534 315.289 34.3362 315.191 34.5637C315.092 34.7912 315.082 35.0472 315.161 35.282C315.241 35.5168 315.405 35.7137 315.621 35.8344C315.838 35.9552 316.091 35.9912 316.333 35.9355Z" fill="white"/>
<path d="M315.057 37.3168L324.998 40.8851C325.236 41.0014 325.509 41.019 325.759 40.9342C326.01 40.8494 326.216 40.6691 326.334 40.4326C326.393 40.3144 326.428 40.1858 326.437 40.0541C326.446 39.9224 326.428 39.7902 326.386 39.6652C326.344 39.5402 326.277 39.4248 326.19 39.3256C326.103 39.2265 325.997 39.1456 325.878 39.0877L315.95 35.5256C315.831 35.4667 315.703 35.4318 315.571 35.4228C315.439 35.4138 315.307 35.431 315.182 35.4734C315.057 35.5157 314.942 35.5824 314.843 35.6696C314.744 35.7568 314.663 35.8628 314.605 35.9814C314.488 36.2186 314.471 36.4922 314.556 36.7424C314.64 36.9926 314.821 37.1991 315.057 37.3168Z" fill="white"/>
<path d="M331.529 30.0882C329.722 33.35 327.65 36.4572 325.333 39.3783C324.531 40.3784 326.033 41.6959 326.832 40.6864C329.255 37.6359 331.422 34.3907 333.31 30.9838C333.978 29.8389 332.143 28.972 331.519 30.0914L331.529 30.0882Z" fill="white"/>
<circle cx="92.5" cy="359.5" r="9.5" fill="url(#paint4_linear_1002_3911)"/>
<circle cx="362" cy="91" r="4" fill="url(#paint5_linear_1002_3911)"/>
<circle cx="337" cy="320" r="4" fill="url(#paint6_linear_1002_3911)"/>
<circle cx="515" cy="4" r="4" fill="url(#paint7_linear_1002_3911)"/>
<circle cx="27" cy="20" r="4" fill="url(#paint8_linear_1002_3911)"/>
<circle cx="97" cy="32" r="4" fill="url(#paint9_linear_1002_3911)"/>
<g filter="url(#filter0_d_1002_3911)">
<rect x="36" y="36" width="491" height="306" rx="20" fill="white"/>
</g>
<g filter="url(#filter1_d_1002_3911)">
<ellipse cx="368.812" cy="299.899" rx="12.3264" ry="12.3221" fill="url(#paint10_linear_1002_3911)"/>
</g>
<g clip-path="url(#clip0_1002_3911)">
<path d="M367.12 305.465V304.57H366.455C364.896 304.57 363.644 303.318 363.644 301.759V298.31C363.644 296.751 364.896 295.499 366.455 295.499H371.108C372.667 295.499 373.92 296.751 373.92 298.31V301.759C373.92 303.318 372.667 304.57 371.108 304.57H368.628L367.12 305.465ZM366.455 296.265C365.331 296.265 364.41 297.185 364.41 298.31V301.759C364.41 302.884 365.331 303.804 366.455 303.804H367.12V304.57L368.424 303.804H371.108C372.233 303.804 373.153 302.884 373.153 301.759V298.31C373.153 297.185 372.233 296.265 371.108 296.265H366.455Z" fill="white"/>
</g>
<g filter="url(#filter2_d_1002_3911)">
<ellipse cx="303.071" cy="299.899" rx="12.3264" ry="12.3221" fill="url(#paint11_linear_1002_3911)"/>
</g>
<path d="M298.16 299.462H300.553C300.672 299.462 300.752 299.541 300.752 299.661V303.029C300.752 303.328 300.513 303.567 300.214 303.567C299.077 303.587 298.14 302.63 298.16 301.494" stroke="white" stroke-miterlimit="10"/>
<path d="M308.128 301.514V298.943C308.128 296.193 305.895 293.961 303.144 293.961C300.393 293.961 298.16 296.193 298.16 298.943V301.514" stroke="white" stroke-miterlimit="10"/>
<path d="M308.131 299.462H305.738C305.619 299.462 305.539 299.542 305.539 299.661V303.029C305.539 303.328 305.778 303.568 306.077 303.568C307.214 303.568 308.151 302.631 308.131 301.475" stroke="white" stroke-miterlimit="10"/>
<path d="M306.074 303.587C306.074 303.587 305.715 305.7 302.525 305.7" stroke="white" stroke-miterlimit="10" stroke-linecap="round"/>
<g filter="url(#filter3_d_1002_3911)">
<ellipse cx="270.686" cy="299.899" rx="12.3264" ry="12.3221" fill="url(#paint12_linear_1002_3911)"/>
</g>
<path d="M269.63 296.254C269.412 297.027 268.701 297.594 267.858 297.594C267.015 297.594 266.305 297.027 266.087 296.254H269.63Z" stroke="white"/>
<path d="M271.568 299.937V296.254H274.662L271.568 299.937Z" stroke="white"/>
<path d="M271.623 303.252C271.841 302.48 272.551 301.913 273.394 301.913C274.237 301.913 274.947 302.48 275.165 303.252L271.623 303.252Z" stroke="white"/>
<path d="M269.685 299.57L269.685 303.253L266.591 303.253L269.685 299.57Z" stroke="white"/>
<g filter="url(#filter4_d_1002_3911)">
<ellipse cx="401.682" cy="299.899" rx="12.3264" ry="12.3221" fill="url(#paint13_linear_1002_3911)"/>
</g>
<g clip-path="url(#clip1_1002_3911)">
<path d="M405.41 295.166C405.895 295.831 405.844 296.802 405.231 297.39L397.971 304.647C397.485 303.982 397.536 303.011 398.15 302.424L405.41 295.166ZM405.41 294.221C405.307 294.221 405.205 294.272 405.103 294.349L397.588 301.861C396.616 302.832 396.616 304.417 397.588 305.388L397.639 305.439C397.715 305.516 397.818 305.567 397.945 305.567C398.048 305.567 398.15 305.516 398.252 305.439L405.767 297.926C406.739 296.955 406.739 295.371 405.767 294.4L405.716 294.349C405.64 294.272 405.512 294.221 405.41 294.221Z" fill="white"/>
<path d="M400.015 294.885C400.578 295.448 400.578 296.367 400.015 296.955L397.715 299.255C397.152 298.693 397.152 297.773 397.715 297.185L400.015 294.885ZM400.015 293.965C399.913 293.965 399.836 293.991 399.76 294.068L397.178 296.674C396.309 297.543 396.309 298.948 397.178 299.817L397.433 300.098C397.51 300.175 397.612 300.201 397.689 300.201C397.791 300.201 397.868 300.175 397.945 300.098L400.526 297.517C401.396 296.649 401.396 295.243 400.526 294.374L400.245 294.093C400.22 293.991 400.117 293.965 400.015 293.965Z" fill="white"/>
<path d="M405.666 300.533C406.229 301.095 406.229 302.015 405.666 302.603L403.366 304.903C403.085 304.622 402.957 304.264 402.957 303.881C402.957 303.497 403.11 303.114 403.391 302.858L405.666 300.533ZM405.666 299.613C405.564 299.613 405.487 299.639 405.411 299.715L402.803 302.296C401.934 303.165 401.934 304.571 402.803 305.439L403.085 305.72C403.161 305.797 403.263 305.823 403.34 305.823C403.442 305.823 403.519 305.797 403.596 305.72L406.178 303.14C407.047 302.271 407.047 300.865 406.178 299.996L405.896 299.715C405.845 299.639 405.769 299.613 405.666 299.613Z" fill="white"/>
</g>
<g filter="url(#filter5_d_1002_3911)">
<ellipse cx="434.552" cy="299.899" rx="12.3264" ry="12.3221" fill="url(#paint14_linear_1002_3911)"/>
</g>
<path d="M436.479 303.176L434.815 300.464L436.303 297.675L439.505 303.176H436.479Z" stroke="white"/>
<path d="M430.234 303.177L434.779 294.989L436.222 297.541L432.975 303.177H430.234Z" stroke="white"/>
<g filter="url(#filter6_d_1002_3911)">
<ellipse cx="335.941" cy="299.899" rx="12.3264" ry="12.3221" fill="url(#paint15_linear_1002_3911)"/>
</g>
<path d="M336.012 302.398C335.807 302.398 335.628 302.219 335.628 302.015V295.115C335.628 294.911 335.807 294.732 336.012 294.732C336.216 294.732 336.395 294.911 336.395 295.115V302.015C336.395 302.219 336.216 302.398 336.012 302.398Z" fill="white"/>
<path d="M338.568 301.939C338.363 301.939 338.184 301.76 338.184 301.555V295.576C338.184 295.371 338.363 295.192 338.568 295.192C338.772 295.192 338.951 295.371 338.951 295.576V301.53C338.951 301.76 338.772 301.939 338.568 301.939Z" fill="white"/>
<path d="M341.124 301.35C340.919 301.35 340.74 301.171 340.74 300.966V296.162C340.74 295.958 340.919 295.779 341.124 295.779C341.328 295.779 341.507 295.958 341.507 296.162V300.966C341.507 301.171 341.328 301.35 341.124 301.35Z" fill="white"/>
<path d="M333.456 295.192C333.66 295.192 333.839 295.371 333.839 295.576V301.53C333.839 301.734 333.66 301.913 333.456 301.913C333.251 301.913 333.073 301.734 333.073 301.53V295.576C333.073 295.371 333.251 295.192 333.456 295.192Z" fill="white"/>
<path d="M330.9 295.78C331.104 295.78 331.283 295.959 331.283 296.163V300.967C331.283 301.172 331.104 301.351 330.9 301.351C330.695 301.351 330.517 301.172 330.517 300.967V296.163C330.517 295.959 330.695 295.78 330.9 295.78Z" fill="white"/>
<path d="M330.902 303.139C330.902 303.139 335.298 306.461 341.127 303.139" stroke="white" stroke-miterlimit="10" stroke-linecap="round"/>
<path d="M461.404 308.818C461.404 308.454 461.493 308.196 461.67 308.045C461.847 307.889 462.063 307.811 462.318 307.811C462.584 307.811 462.808 307.889 462.99 308.045C463.172 308.196 463.263 308.454 463.263 308.818C463.263 309.178 463.172 309.441 462.99 309.607C462.808 309.769 462.584 309.85 462.318 309.85C462.063 309.85 461.847 309.769 461.67 309.607C461.493 309.441 461.404 309.178 461.404 308.818ZM465.607 308.818C465.607 308.454 465.696 308.196 465.873 308.045C466.05 307.889 466.266 307.811 466.521 307.811C466.787 307.811 467.011 307.889 467.193 308.045C467.375 308.196 467.467 308.454 467.467 308.818C467.467 309.178 467.375 309.441 467.193 309.607C467.011 309.769 466.787 309.85 466.521 309.85C466.266 309.85 466.05 309.769 465.873 309.607C465.696 309.441 465.607 309.178 465.607 308.818ZM469.81 308.818C469.81 308.454 469.899 308.196 470.076 308.045C470.253 307.889 470.469 307.811 470.724 307.811C470.99 307.811 471.214 307.889 471.396 308.045C471.579 308.196 471.67 308.454 471.67 308.818C471.67 309.178 471.579 309.441 471.396 309.607C471.214 309.769 470.99 309.85 470.724 309.85C470.469 309.85 470.253 309.769 470.076 309.607C469.899 309.441 469.81 309.178 469.81 308.818Z" fill="#BEC2C9"/>
<path opacity="0.06" d="M78.6006 275.255H475.098" stroke="black" stroke-width="0.5"/>
<path opacity="0.06" d="M78.6006 224.94H475.098" stroke="black" stroke-width="0.5"/>
<path opacity="0.06" d="M78.6006 173.597H475.098" stroke="black" stroke-width="0.5"/>
<path opacity="0.06" d="M78.6006 124.309H475.098" stroke="url(#paint16_linear_1002_3911)" stroke-width="0.5"/>
<path d="M77.5493 249.584C77.5493 249.584 92.2564 252.15 134.08 243.936C175.696 235.763 172.226 224.94 202.559 224.94C236.601 224.94 244.914 216.211 261.847 216.211C296.255 216.211 288.907 209.54 317.458 205.946C351.507 201.66 385.772 179.246 410.297 173.599C453.762 163.59 443.388 156.142 474.64 148.954" stroke="url(#paint17_linear_1002_3911)" stroke-dasharray="3 3"/>
<path d="M77.5734 263.96C77.5734 263.96 90.7052 257.285 132.528 249.07C174.145 240.897 162.831 243.423 192.106 235.208C224.881 226.011 246.563 223.399 263.496 223.399C297.904 223.399 288.359 204.916 316.91 201.322C350.958 197.036 380.596 190.027 409.358 171.544C446.877 147.432 443.388 144.332 474.64 137.144" stroke="url(#paint18_linear_1002_3911)" stroke-dasharray="3 3"/>
<path d="M77.5734 260.366C77.5734 260.366 93.7868 252.664 135.61 244.45C177.227 236.276 171.562 240.342 200.837 232.128C233.612 222.931 250.265 209.692 267.091 211.591C298.934 215.185 297.09 198.242 325.641 194.648C359.69 190.362 371.473 195.776 403.708 184.379C445.823 169.49 443.388 181.812 474.64 174.624" stroke="url(#paint19_linear_1002_3911)" stroke-dasharray="3 3"/>
<path d="M77.5734 270.121C77.5734 270.121 95.5493 255.745 134.583 252.151C173.656 248.553 174.643 241.883 204.946 237.262C238.598 232.13 272.35 227.661 289.176 229.56C321.019 233.154 315.58 219.292 344.131 215.698C378.179 211.412 373.406 198.755 406.79 193.107C450.835 185.656 445.442 191.054 476.694 183.866" stroke="url(#paint20_linear_1002_3911)" stroke-dasharray="3 3"/>
<path d="M78.4681 232.641C78.4681 232.641 98.2308 219.805 140.054 211.591C181.671 203.417 174.466 192.594 206.236 192.594C240.277 192.594 242.156 183.354 259.089 183.354C293.497 183.354 307.75 166.924 336.301 163.33C370.35 159.044 381.635 161.275 406.16 155.627C449.625 145.619 444.766 139.198 473.261 123.282" stroke="url(#paint21_linear_1002_3911)" stroke-dasharray="3 3"/>
<path d="M78.0067 255.231C78.0067 255.231 109.259 240.342 151.082 232.127C192.699 223.954 194.686 210.05 226.456 210.05C260.498 210.05 269.658 203.889 291.719 194.134C323.711 179.987 320.617 186.946 349.168 183.352C383.217 179.066 381.633 172.57 406.158 166.923C449.623 156.914 442.007 160.762 470.502 144.846" stroke="url(#paint22_linear_1002_3911)" stroke-dasharray="3 3"/>
<path d="M129.475 261.906C85.3055 271.661 77.0879 274.816 77.0879 274.816H475.098V127.906C475.098 110.45 447.426 189.263 403.962 199.272C379.437 204.919 359.311 227.845 325.263 232.131C296.712 235.725 293.313 236.235 260.956 238.802C244.076 240.141 225.004 244.963 193.123 248.047C160.89 251.165 170.774 252.785 129.475 261.906Z" fill="url(#paint23_linear_1002_3911)"/>
<path d="M77.0879 274.816C77.0879 274.816 79.6559 273.715 118.176 264.473C159.303 254.606 161.604 252.034 193.123 248.047C233.735 242.909 233.222 240.599 270.201 238.289C303.071 236.235 296.712 235.725 325.263 232.131C359.311 227.845 379.902 206.651 403.962 199.272C445.823 186.433 466.88 129.956 475.098 124.822" stroke="url(#paint24_linear_1002_3911)" stroke-width="2"/>
<path d="M428.416 188.487C428.416 190.486 426.795 192.107 424.794 192.107C422.793 192.107 421.172 190.486 421.172 188.487C421.172 186.487 422.793 184.866 424.794 184.866C426.795 184.866 428.416 186.487 428.416 188.487Z" fill="white" stroke="url(#paint25_linear_1002_3911)" stroke-width="2"/>
<path d="M299.475 236.748C299.475 238.748 297.854 240.369 295.853 240.369C293.852 240.369 292.23 238.748 292.23 236.748C292.23 234.749 293.852 233.128 295.853 233.128C297.854 233.128 299.475 234.749 299.475 236.748Z" fill="white" stroke="url(#paint26_linear_1002_3911)" stroke-width="2"/>
<path d="M188.538 249.071C188.538 251.07 186.916 252.691 184.915 252.691C182.915 252.691 181.293 251.07 181.293 249.071C181.293 247.071 182.915 245.45 184.915 245.45C186.916 245.45 188.538 247.071 188.538 249.071Z" fill="white" stroke="url(#paint27_linear_1002_3911)" stroke-width="2"/>
<g filter="url(#filter7_d_1002_3911)">
<ellipse cx="474.071" cy="117.482" rx="15.4079" ry="15.4027" fill="url(#paint28_linear_1002_3911)"/>
</g>
<g filter="url(#filter8_d_1002_3911)">
<path d="M478.545 110.029H469.35C467.859 110.029 466.616 111.905 466.616 113.147V127.916L469.698 124.984H479.539C480.781 124.984 481.776 124.189 481.776 122.699V113.147C481.776 111.408 480.533 110.029 478.545 110.029Z" fill="white"/>
<ellipse cx="470.591" cy="117.482" rx="0.994061" ry="0.993722" fill="#FA9531"/>
<ellipse cx="474.07" cy="117.482" rx="0.994061" ry="0.993722" fill="#FA9531"/>
<ellipse cx="477.549" cy="117.482" rx="0.994061" ry="0.993722" fill="#FA9531"/>
</g>
<path d="M460.999 83.5872C459.159 86.2563 461.355 87.4656 461.355 87.4656C460.328 86.7582 459.917 86.4753 457.27 87.68C458.89 85.768 456.398 84.0601 457.389 84.4311C458.352 84.7916 460.138 84.1042 460.999 83.5872Z" stroke="url(#paint29_linear_1002_3911)" stroke-linejoin="round"/>
<path d="M492.378 107.057C490.889 105.59 489.875 106.848 489.875 106.848C490.439 106.275 490.665 106.046 490.197 104.231C491.23 105.474 492.594 104.084 492.247 104.671C491.91 105.242 492.146 106.453 492.378 107.057Z" stroke="url(#paint30_linear_1002_3911)" stroke-linejoin="round"/>
<ellipse rx="1.29631" ry="1.29669" transform="matrix(0.258902 0.965904 -0.965948 0.258737 464.359 100.225)" fill="url(#paint31_linear_1002_3911)"/>
<path d="M499.134 101.477C498.442 101.663 497.731 101.252 497.546 100.561C497.36 99.8692 497.771 99.1584 498.463 98.9731C499.154 98.7878 499.865 99.1982 500.051 99.8897C500.236 100.581 499.826 101.292 499.134 101.477Z" fill="url(#paint32_linear_1002_3911)"/>
<path d="M491.396 92.8901L491.892 92.7052L488.738 98.8094L488.709 98.8659L488.687 98.9256L486.956 103.671L480.683 100.157L480.546 100.08L480.39 100.049L472.886 98.5512L474.621 93.7967L474.643 93.737L474.657 93.675L476.175 86.9745L476.436 87.4353L478.347 90.8146L478.77 91.5611L479.572 91.2575L483.201 89.8839L484.148 89.5252L484.643 90.4098L486.534 93.7963L486.953 94.545L487.756 94.2456L491.396 92.8901ZM492.286 91.9429L491.849 91.3561C491.544 90.9458 491.447 90.4004 491.632 89.893C491.926 89.0886 492.822 88.6716 493.627 88.9652C494.432 89.2588 494.849 90.1544 494.555 90.9588C494.311 91.6281 493.647 92.0321 492.964 91.975L492.298 91.9193L492.286 91.9429ZM477.077 85.9698L476.365 86.1377L476.371 86.1116L475.826 85.7258C475.266 85.3296 475.018 84.5932 475.263 83.9238C475.556 83.1195 476.452 82.7024 477.257 82.996C478.062 83.2897 478.479 84.1853 478.185 84.9896C478 85.497 477.575 85.8523 477.077 85.9698ZM485.277 88.9511L484.267 89.1995L483.655 88.3596C483.357 87.9508 483.264 87.4111 483.448 86.9085C483.741 86.1041 484.637 85.687 485.442 85.9807C486.247 86.2743 486.664 87.1699 486.37 87.9743C486.187 88.4769 485.768 88.8302 485.277 88.9511Z" stroke="url(#paint33_linear_1002_3911)" stroke-width="2"/>
<ellipse rx="0.786834" ry="0.786628" transform="matrix(0.93949 0.342575 -0.342782 0.939415 476.7 97.079)" fill="url(#paint34_linear_1002_3911)"/>
<ellipse rx="0.786834" ry="0.786628" transform="matrix(0.93949 0.342575 -0.342782 0.939415 481.137 98.6975)" fill="url(#paint35_linear_1002_3911)"/>
<ellipse rx="0.786834" ry="0.786628" transform="matrix(0.93949 0.342575 -0.342782 0.939415 485.078 100.133)" fill="url(#paint36_linear_1002_3911)"/>
<g clip-path="url(#clip2_1002_3911)">
<path d="M117.792 159.084C123.39 158.163 127.181 152.88 126.259 147.284C125.338 141.688 120.054 137.899 114.456 138.82C108.858 139.741 105.067 145.024 105.989 150.619C106.91 156.215 112.195 160.005 117.792 159.084Z" fill="#FFCE00"/>
<path d="M116.245 150.732C115.462 150.732 114.75 151.064 114.276 151.586H118.19C117.715 151.064 117.027 150.732 116.245 150.732Z" fill="white"/>
<path d="M117.832 155.38C118.473 154.906 118.876 154.17 118.876 153.317C118.876 152.653 118.615 152.06 118.212 151.586H114.274C113.847 152.036 113.609 152.653 113.609 153.317C113.609 154.17 114.013 154.906 114.653 155.38C115.104 155.119 115.65 154.953 116.243 154.953C116.812 154.953 117.358 155.119 117.832 155.38Z" fill="#562912"/>
<path d="M117.832 155.38C117.381 155.119 116.835 154.953 116.242 154.953C115.649 154.953 115.103 155.095 114.653 155.38C115.103 155.712 115.649 155.901 116.242 155.901C116.835 155.901 117.381 155.712 117.832 155.38Z" fill="#CC342F"/>
<path d="M109.907 144.685C109.836 144.685 109.741 144.661 109.694 144.59C109.599 144.471 109.599 144.281 109.717 144.187C110.382 143.617 111.236 143.262 112.09 143.191C112.256 143.167 112.398 143.285 112.398 143.451C112.422 143.617 112.303 143.76 112.137 143.76C111.378 143.831 110.666 144.139 110.097 144.637C110.049 144.661 109.978 144.685 109.907 144.685Z" fill="#562912"/>
<path d="M122.314 144.685C122.243 144.685 122.172 144.661 122.125 144.613C121.555 144.115 120.82 143.807 120.061 143.736C119.895 143.712 119.776 143.57 119.8 143.428C119.823 143.262 119.966 143.143 120.108 143.167C120.986 143.238 121.816 143.594 122.48 144.163C122.599 144.258 122.623 144.447 122.504 144.566C122.48 144.637 122.409 144.685 122.314 144.685Z" fill="#562912"/>
<path d="M122.674 147.365C122.674 148.598 121.701 149.618 120.515 149.618C119.329 149.618 118.356 148.622 118.356 147.365C118.356 146.132 119.329 145.112 120.515 145.112C121.701 145.136 122.674 146.132 122.674 147.365Z" fill="white"/>
<path d="M121.418 147.365C121.418 147.886 121.015 148.313 120.493 148.313C119.971 148.313 119.568 147.886 119.568 147.365C119.568 146.843 119.971 146.416 120.493 146.416C121.015 146.416 121.418 146.843 121.418 147.365Z" fill="#562912"/>
<path d="M113.919 147.365C113.919 148.598 112.946 149.618 111.76 149.618C110.574 149.618 109.601 148.622 109.601 147.365C109.601 146.132 110.574 145.112 111.76 145.112C112.946 145.136 113.919 146.132 113.919 147.365Z" fill="white"/>
<path d="M112.663 147.365C112.663 147.886 112.26 148.313 111.738 148.313C111.216 148.313 110.813 147.886 110.813 147.365C110.813 146.843 111.216 146.416 111.738 146.416C112.26 146.416 112.663 146.843 112.663 147.365Z" fill="#562912"/>
</g>
<g clip-path="url(#clip3_1002_3911)">
<path d="M190.178 86.8124L189.875 86.9853V86.5962C189.875 86.5097 189.875 86.553 189.875 86.553L189.831 86.4233L189.701 86.1639C189.615 85.9909 189.528 85.818 189.442 85.645C189.268 85.2991 189.052 84.9533 188.835 84.6074C188.402 83.9156 187.926 83.2671 187.406 82.6618C186.367 81.4512 185.111 80.4135 183.725 79.5488C180.997 77.8626 177.749 77.0411 174.544 77.0411C171.34 77.0411 168.135 77.8626 165.407 79.4623C162.635 81.0188 160.383 83.3968 158.824 86.1639L158.478 86.8124L157.872 86.4233C156.226 85.3856 154.407 84.6074 152.502 84.2615C150.596 83.9156 148.647 83.9588 146.829 84.4777C145.919 84.7371 145.053 85.1262 144.23 85.645C143.451 86.1206 142.801 86.7691 142.238 87.5042C141.675 88.2392 141.199 89.1039 140.766 89.9686C140.549 90.4009 140.376 90.8765 140.159 91.3089C139.986 91.7412 139.813 92.2168 139.683 92.6492L139.337 93.8166L138.297 93.0383C137.171 92.1736 135.612 91.871 134.14 92.0871C132.668 92.3033 131.238 92.9951 130.242 94.076C129.246 95.1569 128.727 96.5836 128.727 98.0969C128.727 99.6101 129.246 101.123 129.983 102.507L130.372 103.199L129.723 103.718C127.427 105.533 125.868 108.3 125.479 111.197C125.046 114.094 125.782 117.121 127.644 119.369C128.553 120.493 129.723 121.401 131.022 122.093C132.321 122.784 133.75 123.217 135.223 123.519C138.211 124.081 141.329 123.952 144.36 123.476L145.486 123.303L145.616 124.384C145.703 125.249 145.659 126.07 145.573 126.849C145.486 127.627 145.313 128.405 145.14 129.183C144.75 130.697 144.187 132.167 143.451 133.507C142.585 135.15 141.545 136.706 140.333 138.133C141.112 137.917 141.892 137.657 142.671 137.398C144.533 136.706 146.352 135.885 148.041 134.847C149.73 133.809 151.289 132.599 152.675 131.215C153.368 130.524 153.974 129.745 154.537 128.967C155.1 128.189 155.576 127.324 155.836 126.503L156.442 124.773L157.568 126.2C158.781 127.757 160.47 128.924 162.332 129.616C164.194 130.264 166.273 130.437 168.265 130.091C170.257 129.745 172.206 128.967 173.808 127.757C175.411 126.546 176.71 124.946 177.446 123.044L177.922 121.833L178.788 122.741C180.131 124.125 182.123 124.86 184.115 124.989C186.15 125.119 188.229 124.73 190.135 123.995C192.04 123.217 193.816 122.049 195.201 120.536C196.587 119.023 197.497 117.121 197.843 115.088L197.93 114.699L198.319 114.613C200.268 114.181 202.044 113.186 203.516 111.759C204.945 110.376 206.028 108.56 206.461 106.614C206.937 104.669 206.721 102.55 205.768 100.777C204.859 98.9616 203.256 97.5348 201.481 96.5404L201.307 96.4539L201.351 96.281C201.87 94.7677 202 93.0815 201.697 91.4818C201.394 89.8821 200.615 88.3689 199.359 87.2447C198.06 86.2071 196.457 85.6018 194.812 85.5586C193.209 85.5153 191.564 85.9477 190.178 86.8124Z" fill="white"/>
<path d="M206.417 100.432C205.378 98.5725 203.732 97.1457 201.913 96.1946C202.346 94.6381 202.389 92.9519 202 91.3954C201.61 89.7525 200.701 88.2392 199.401 87.2448C200.657 88.3257 201.437 89.8822 201.74 91.4819C202.043 93.0816 201.913 94.7678 201.393 96.281L201.35 96.454L201.523 96.5404C203.342 97.5349 204.901 98.9616 205.811 100.778C206.763 102.55 206.937 104.669 206.504 106.614C206.071 108.56 204.988 110.376 203.559 111.759C202.13 113.143 200.311 114.137 198.362 114.613L197.972 114.699L197.886 115.089C197.539 117.121 196.63 119.023 195.244 120.536C193.858 122.049 192.083 123.26 190.177 123.995C188.272 124.773 186.193 125.162 184.158 124.989C182.122 124.86 180.13 124.125 178.831 122.741L177.965 121.833L177.489 123.044C176.752 124.903 175.453 126.546 173.851 127.757C172.249 128.967 170.3 129.745 168.308 130.091C166.316 130.437 164.237 130.264 162.375 129.616C160.513 128.967 158.824 127.757 157.611 126.2L156.485 124.773L155.879 126.503C155.576 127.324 155.099 128.189 154.58 128.967C154.017 129.745 153.41 130.524 152.718 131.215C151.332 132.599 149.773 133.81 148.084 134.847C146.395 135.885 144.576 136.75 142.714 137.398C141.934 137.701 141.155 137.917 140.375 138.133C141.588 136.706 142.627 135.15 143.493 133.507C144.186 132.123 144.749 130.697 145.182 129.183C145.399 128.448 145.529 127.67 145.615 126.849C145.702 126.07 145.745 125.249 145.659 124.384L145.529 123.303L144.403 123.476C141.328 123.952 138.21 124.082 135.265 123.519C133.793 123.217 132.364 122.784 131.065 122.093C129.765 121.401 128.596 120.493 127.687 119.369C125.825 117.164 125.088 114.094 125.521 111.197C125.911 108.301 127.427 105.533 129.722 103.718L130.372 103.199L129.982 102.507C129.246 101.08 128.726 99.5669 128.726 98.0969C128.683 96.6269 129.202 95.1569 130.242 94.076C131.238 92.9951 132.667 92.3034 134.139 92.0872C135.612 91.871 137.171 92.1737 138.297 93.0384L139.336 93.8166L139.682 92.5628C139.812 92.0872 139.986 91.6548 140.159 91.2225C140.332 90.7901 140.549 90.3145 140.765 89.8822C141.198 89.0175 141.631 88.1527 142.237 87.4177C142.8 86.6827 143.45 86.0342 144.23 85.5586C145.052 85.083 145.918 84.6939 146.828 84.3912C148.647 83.8724 150.596 83.7859 152.501 84.1751C154.406 84.5209 156.225 85.2992 157.871 86.3368L158.477 86.726L158.824 86.0774C160.383 83.3104 162.635 80.9756 165.406 79.3759C168.178 77.7762 171.339 76.9547 174.544 76.9547C177.748 76.9547 180.953 77.8194 183.725 79.4624C185.11 80.2839 186.323 81.3215 187.406 82.5753C187.925 83.1806 188.402 83.8292 188.835 84.5209C189.051 84.8668 189.268 85.2127 189.441 85.5586C189.528 85.7315 189.614 85.9045 189.701 86.0774L189.831 86.3368L189.874 86.4665C189.874 86.4665 189.874 86.4666 189.874 86.5098V86.8989L190.177 86.726C191.563 85.9045 193.209 85.4289 194.811 85.4721C196.457 85.5154 198.059 86.1207 199.358 87.1583C198.102 86.0774 196.5 85.3857 194.811 85.256C193.209 85.1262 191.606 85.4721 190.177 86.2071L190.134 86.1207L190.004 85.818C189.917 85.6451 189.831 85.4289 189.744 85.256C189.571 84.8668 189.354 84.5209 189.138 84.1751C188.705 83.4401 188.228 82.7915 187.709 82.143C186.626 80.8459 185.37 79.7218 183.984 78.8138C181.213 77.1277 177.878 76.1332 174.544 76.0468C171.166 75.9603 167.788 76.7385 164.8 78.3815C162.028 79.8947 159.69 82.143 158.001 84.7804C156.399 83.7859 154.623 83.0509 152.761 82.6618C150.682 82.2295 148.43 82.2295 146.352 82.7915C145.312 83.0942 144.273 83.5265 143.363 84.0886C142.367 84.6939 141.501 85.4721 140.852 86.3368C140.159 87.2016 139.639 88.1527 139.163 89.1039C138.946 89.5795 138.73 90.0551 138.513 90.5307C138.47 90.6604 138.383 90.7901 138.34 90.9631C136.954 90.2713 135.352 90.0551 133.836 90.2713C131.931 90.5307 130.155 91.3954 128.813 92.8222C128.163 93.514 127.6 94.3787 127.254 95.2866C126.95 96.1513 126.777 97.1457 126.777 98.0969C126.777 99.7399 127.254 101.296 127.903 102.68C125.521 104.798 123.919 107.738 123.486 110.895C123.226 112.581 123.313 114.354 123.746 116.04C124.179 117.726 124.958 119.326 126.084 120.666C127.167 122.006 128.596 123.13 130.112 123.909C131.628 124.73 133.273 125.249 134.919 125.552C137.82 126.114 140.722 126.07 143.58 125.724C143.58 126.027 143.537 126.287 143.493 126.589C143.407 127.281 143.277 127.929 143.104 128.621C142.757 129.962 142.237 131.259 141.588 132.512C140.332 135.02 138.513 137.268 136.434 139.171L133.663 141.722L137.344 140.987C139.423 140.598 141.458 140.035 143.45 139.3C145.442 138.565 147.348 137.658 149.166 136.533C150.985 135.409 152.674 134.069 154.147 132.512C154.883 131.734 155.576 130.913 156.182 130.005C156.485 129.529 156.788 129.01 157.091 128.492C158.391 129.745 159.993 130.74 161.725 131.302C163.934 132.037 166.316 132.167 168.611 131.777C170.906 131.388 173.071 130.437 174.89 129.01C176.406 127.843 177.705 126.287 178.571 124.557C179.221 125.033 179.914 125.422 180.693 125.724C181.819 126.157 182.945 126.373 184.114 126.416C186.41 126.546 188.705 126.07 190.783 125.206C192.862 124.341 194.811 123.001 196.283 121.271C197.712 119.628 198.665 117.639 199.055 115.478C201.047 114.916 202.866 113.791 204.295 112.321C205.811 110.765 206.893 108.776 207.326 106.614C207.759 104.626 207.456 102.334 206.417 100.432Z" fill="#1A1A1A"/>
</g>
<path d="M155.772 100.174L155.756 111.769L153.212 112.475L149.064 105.375L149.081 113.623L146.557 114.34L140.664 104.369L142.977 103.727L147.195 111.556L147.062 102.593L149.467 101.925L153.842 109.66L153.444 100.82L155.772 100.174ZM164.003 109.629C163.18 109.857 162.391 109.883 161.633 109.705C160.872 109.518 160.209 109.143 159.643 108.581C159.087 108.016 158.688 107.296 158.445 106.423C158.203 105.549 158.179 104.725 158.373 103.952C158.578 103.175 158.965 102.514 159.533 101.969C160.098 101.414 160.792 101.022 161.614 100.794C162.436 100.565 163.233 100.543 164.004 100.728C164.772 100.902 165.439 101.27 166.005 101.833C166.581 102.392 166.99 103.109 167.233 103.982C167.476 104.856 167.489 105.682 167.274 106.462C167.069 107.238 166.679 107.906 166.104 108.464C165.536 109.009 164.835 109.397 164.003 109.629ZM163.48 107.748C163.871 107.639 164.21 107.446 164.498 107.166C164.793 106.874 164.99 106.509 165.09 106.072C165.19 105.635 165.164 105.144 165.013 104.599C164.787 103.787 164.399 103.225 163.847 102.913C163.303 102.588 162.723 102.512 162.106 102.683C161.489 102.854 161.032 103.219 160.733 103.778C160.442 104.324 160.409 105.003 160.635 105.815C160.86 106.627 161.235 107.198 161.759 107.528C162.29 107.846 162.863 107.919 163.48 107.748ZM179.47 95.9848L179.345 105.219L177.017 105.865L173.802 100.332L173.903 106.73L171.56 107.381L166.674 99.538L168.863 98.9301L172.181 105.016L172.008 98.0568L174.29 97.4232L177.696 103.468L177.404 96.5584L179.47 95.9848ZM182.76 92.4807L184.582 99.9951L182.763 100.5L180.432 93.1272L182.76 92.4807ZM184.721 103.842C184.33 103.951 183.974 103.922 183.651 103.757C183.336 103.579 183.128 103.31 183.028 102.951C182.929 102.591 182.969 102.259 183.15 101.954C183.338 101.636 183.628 101.422 184.018 101.314C184.399 101.208 184.746 101.245 185.062 101.423C185.374 101.591 185.58 101.854 185.68 102.214C185.78 102.574 185.741 102.911 185.563 103.226C185.382 103.531 185.101 103.737 184.721 103.842Z" fill="#050505"/>
<path d="M285.344 252.589C285.259 251.908 285.335 251.28 285.572 250.706C285.816 250.125 286.183 249.653 286.675 249.289C287.173 248.917 287.752 248.69 288.414 248.608C289.188 248.511 289.891 248.625 290.523 248.949C291.154 249.273 291.63 249.771 291.949 250.443L290.352 250.643C290.151 250.332 289.895 250.112 289.584 249.983C289.279 249.853 288.937 249.812 288.56 249.859C288.157 249.91 287.808 250.051 287.515 250.282C287.227 250.506 287.015 250.801 286.88 251.168C286.751 251.533 286.715 251.948 286.773 252.411C286.83 252.867 286.967 253.26 287.183 253.589C287.404 253.911 287.683 254.148 288.018 254.301C288.358 254.446 288.73 254.494 289.134 254.443C289.511 254.396 289.831 254.272 290.095 254.071C290.365 253.863 290.558 253.583 290.676 253.233L292.273 253.033C292.13 253.77 291.792 254.373 291.26 254.843C290.733 255.305 290.08 255.585 289.299 255.683C288.638 255.765 288.02 255.691 287.447 255.461C286.88 255.222 286.407 254.855 286.029 254.358C285.658 253.86 285.43 253.271 285.344 252.589ZM296.131 249.104C296.548 249.052 296.93 249.098 297.277 249.243C297.624 249.381 297.909 249.618 298.132 249.952C298.361 250.28 298.506 250.692 298.569 251.188L298.972 254.413L297.583 254.586L297.203 251.55C297.148 251.113 296.997 250.793 296.75 250.589C296.502 250.378 296.189 250.296 295.812 250.343C295.429 250.391 295.139 250.548 294.944 250.815C294.755 251.073 294.687 251.421 294.742 251.858L295.122 254.894L293.733 255.068L292.814 247.725L294.203 247.551L294.52 250.082C294.669 249.821 294.884 249.606 295.165 249.437C295.445 249.26 295.767 249.15 296.131 249.104ZM305.045 250.741C305.069 250.939 305.078 251.12 305.072 251.282L301.053 251.784C301.136 252.177 301.314 252.471 301.587 252.665C301.859 252.859 302.175 252.934 302.532 252.889C303.048 252.825 303.387 252.557 303.55 252.087L305.048 251.899C304.956 252.449 304.706 252.923 304.299 253.323C303.892 253.717 303.36 253.955 302.706 254.037C302.176 254.103 301.686 254.047 301.233 253.868C300.787 253.682 300.417 253.389 300.125 252.989C299.84 252.588 299.662 252.106 299.592 251.544C299.521 250.975 299.574 250.461 299.752 250.002C299.93 249.543 300.212 249.172 300.6 248.888C300.988 248.604 301.453 248.429 301.995 248.361C302.518 248.296 302.998 248.35 303.437 248.523C303.882 248.696 304.243 248.977 304.52 249.365C304.803 249.747 304.977 250.205 305.045 250.741ZM303.556 250.524C303.505 250.168 303.34 249.899 303.062 249.719C302.784 249.532 302.462 249.461 302.099 249.507C301.755 249.55 301.477 249.692 301.265 249.934C301.059 250.168 300.953 250.473 300.946 250.85L303.556 250.524ZM305.716 250.778C305.645 250.209 305.699 249.698 305.877 249.246C306.055 248.787 306.334 248.416 306.716 248.134C307.096 247.844 307.551 247.666 308.08 247.6C308.761 247.515 309.345 247.617 309.831 247.905C310.323 248.186 310.684 248.625 310.913 249.221L309.415 249.409C309.306 249.18 309.147 249.012 308.938 248.904C308.736 248.788 308.496 248.747 308.218 248.782C307.821 248.832 307.525 249.017 307.33 249.337C307.134 249.65 307.069 250.071 307.135 250.601C307.2 251.123 307.367 251.515 307.635 251.778C307.902 252.033 308.234 252.136 308.631 252.086C309.193 252.016 309.529 251.719 309.638 251.195L311.137 251.007C311.059 251.622 310.817 252.132 310.411 252.539C310.005 252.946 309.465 253.192 308.79 253.276C308.261 253.342 307.777 253.285 307.338 253.105C306.898 252.918 306.535 252.627 306.251 252.233C305.966 251.832 305.787 251.347 305.716 250.778ZM315.641 252.329L313.483 250.22L313.776 252.562L312.386 252.736L311.468 245.393L312.857 245.219L313.38 249.397L314.933 246.834L316.739 246.608L314.663 249.669L317.447 252.103L315.641 252.329ZM319.096 244.741L319.537 249.554L318.366 249.7L317.597 244.929L319.096 244.741ZM319.271 251.945C319.02 251.977 318.802 251.927 318.618 251.795C318.439 251.656 318.335 251.471 318.306 251.24C318.277 251.008 318.333 250.806 318.472 250.634C318.618 250.455 318.816 250.349 319.068 250.318C319.313 250.287 319.524 250.342 319.703 250.48C319.881 250.613 319.984 250.795 320.013 251.026C320.042 251.258 319.987 251.463 319.848 251.641C319.708 251.813 319.516 251.915 319.271 251.945Z" fill="#050505"/>
<path d="M279.885 250.246C280.194 249.754 280.843 249.606 281.335 249.915C281.827 250.224 281.975 250.873 281.666 251.365L277.748 257.597L275.967 256.478L279.885 250.246Z" fill="#FA9531"/>
<path d="M278.868 255.816L277.749 257.596L274.186 255.358C273.694 255.049 273.546 254.4 273.855 253.909C274.165 253.417 274.814 253.269 275.306 253.578L278.868 255.816Z" fill="#FA9531"/>
<path d="M420.181 206.035C419.827 205.447 419.642 204.843 419.626 204.222C419.612 203.592 419.757 203.011 420.059 202.479C420.363 201.938 420.801 201.496 421.373 201.152C422.041 200.75 422.73 200.569 423.439 200.609C424.148 200.649 424.784 200.912 425.349 201.397L423.969 202.227C423.66 202.024 423.337 201.927 423 201.935C422.668 201.94 422.34 202.041 422.014 202.236C421.665 202.446 421.404 202.716 421.23 203.047C421.057 203.368 420.984 203.724 421.008 204.114C421.038 204.5 421.174 204.893 421.415 205.293C421.652 205.687 421.936 205.991 422.267 206.204C422.6 206.408 422.95 206.512 423.319 206.517C423.689 206.511 424.049 206.404 424.397 206.194C424.723 205.999 424.965 205.755 425.125 205.465C425.287 205.165 425.35 204.831 425.316 204.463L426.695 203.633C426.863 204.364 426.799 205.053 426.503 205.698C426.208 206.334 425.724 206.855 425.05 207.26C424.479 207.604 423.885 207.786 423.267 207.808C422.652 207.82 422.071 207.676 421.524 207.375C420.983 207.07 420.535 206.624 420.181 206.035ZM428.629 198.478C428.989 198.262 429.357 198.149 429.733 198.141C430.106 198.126 430.462 198.227 430.802 198.443C431.144 198.649 431.444 198.967 431.702 199.395L433.379 202.179L432.179 202.901L430.601 200.279C430.374 199.902 430.106 199.671 429.797 199.584C429.485 199.492 429.166 199.544 428.84 199.74C428.509 199.939 428.308 200.2 428.237 200.523C428.169 200.836 428.249 201.181 428.476 201.558L430.054 204.18L428.854 204.901L425.037 198.562L426.237 197.84L427.552 200.024C427.583 199.726 427.692 199.442 427.88 199.174C428.065 198.899 428.315 198.667 428.629 198.478ZM437.442 196.362C437.545 196.533 437.626 196.694 437.686 196.845L434.216 198.933C434.45 199.259 434.732 199.455 435.06 199.522C435.389 199.589 435.707 199.53 436.015 199.344C436.461 199.076 436.663 198.694 436.621 198.198L437.915 197.419C438.053 197.959 438.017 198.494 437.807 199.024C437.594 199.549 437.205 199.982 436.639 200.322C436.182 200.597 435.711 200.745 435.225 200.765C434.741 200.776 434.285 200.657 433.856 200.41C433.432 200.159 433.074 199.791 432.782 199.305C432.486 198.814 432.327 198.323 432.303 197.831C432.28 197.34 432.388 196.886 432.627 196.469C432.867 196.053 433.221 195.704 433.689 195.422C434.14 195.15 434.602 195.005 435.073 194.986C435.549 194.964 435.993 195.074 436.404 195.317C436.817 195.551 437.163 195.899 437.442 196.362ZM435.993 196.767C435.801 196.462 435.542 196.283 435.215 196.231C434.884 196.173 434.562 196.239 434.248 196.428C433.951 196.606 433.755 196.849 433.659 197.156C433.566 197.453 433.592 197.775 433.739 198.123L435.993 196.767ZM438.071 196.123C437.775 195.632 437.617 195.144 437.597 194.658C437.573 194.166 437.678 193.714 437.912 193.301C438.143 192.882 438.486 192.536 438.943 192.261C439.532 191.907 440.107 191.763 440.668 191.83C441.232 191.887 441.739 192.142 442.191 192.594L440.897 193.373C440.704 193.208 440.491 193.119 440.257 193.104C440.024 193.081 439.788 193.141 439.548 193.285C439.206 193.491 439.01 193.78 438.961 194.152C438.909 194.518 439.021 194.929 439.296 195.386C439.568 195.837 439.879 196.128 440.23 196.259C440.578 196.385 440.923 196.344 441.266 196.138C441.752 195.846 441.938 195.438 441.825 194.915L443.119 194.136C443.297 194.729 443.283 195.294 443.077 195.831C442.871 196.367 442.476 196.81 441.894 197.161C441.437 197.436 440.971 197.58 440.496 197.593C440.018 197.601 439.569 197.482 439.149 197.237C438.726 196.986 438.366 196.615 438.071 196.123ZM447.773 193.519L444.945 192.466L446.162 194.488L444.962 195.21L441.145 188.87L442.345 188.148L444.517 191.755L444.898 188.783L446.458 187.844L445.801 191.484L449.332 192.58L447.773 193.519ZM447.855 185.183L450.209 189.403L449.198 190.012L446.561 185.962L447.855 185.183ZM450.936 191.697C450.719 191.827 450.5 191.87 450.278 191.825C450.058 191.77 449.888 191.643 449.768 191.443C449.648 191.243 449.616 191.036 449.674 190.822C449.735 190.599 449.873 190.422 450.091 190.292C450.302 190.165 450.517 190.128 450.737 190.183C450.953 190.232 451.121 190.356 451.242 190.556C451.362 190.756 451.395 190.966 451.34 191.185C451.282 191.399 451.148 191.57 450.936 191.697Z" fill="#050505"/>
<path d="M414.239 206.107C414.322 205.532 414.856 205.134 415.431 205.217C416.005 205.3 416.404 205.834 416.321 206.408L415.266 213.693L413.185 213.391L414.239 206.107Z" fill="#FA9531"/>
<path d="M415.569 211.611L415.268 213.692L411.104 213.09C410.529 213.006 410.131 212.473 410.214 211.898C410.297 211.324 410.83 210.925 411.405 211.008L415.569 211.611Z" fill="#FA9531"/>
<path d="M170.966 262.346C170.935 261.66 171.06 261.04 171.341 260.487C171.629 259.926 172.033 259.484 172.552 259.16C173.077 258.829 173.673 258.648 174.338 258.617C175.118 258.581 175.809 258.75 176.414 259.123C177.018 259.495 177.453 260.029 177.719 260.724L176.111 260.798C175.935 260.473 175.697 260.233 175.397 260.08C175.103 259.927 174.766 259.859 174.386 259.876C173.98 259.895 173.622 260.008 173.311 260.216C173.006 260.417 172.772 260.695 172.608 261.049C172.451 261.404 172.383 261.814 172.405 262.28C172.426 262.739 172.531 263.142 172.72 263.487C172.916 263.825 173.175 264.083 173.497 264.262C173.825 264.434 174.192 264.51 174.599 264.492C174.978 264.474 175.307 264.376 175.586 264.196C175.871 264.009 176.086 263.746 176.23 263.406L177.839 263.332C177.638 264.055 177.254 264.63 176.687 265.056C176.125 265.476 175.452 265.704 174.666 265.74C174 265.77 173.39 265.648 172.837 265.373C172.29 265.091 171.848 264.688 171.51 264.163C171.179 263.638 170.998 263.032 170.966 262.346ZM181.993 259.717C182.412 259.698 182.79 259.774 183.125 259.945C183.459 260.11 183.725 260.368 183.921 260.72C184.124 261.064 184.236 261.486 184.259 261.986L184.409 265.232L183.01 265.296L182.87 262.24C182.849 261.8 182.724 261.469 182.494 261.246C182.263 261.016 181.958 260.91 181.578 260.927C181.192 260.945 180.891 261.079 180.675 261.329C180.466 261.572 180.372 261.914 180.392 262.353L180.533 265.41L179.134 265.474L178.794 258.082L180.193 258.018L180.31 260.565C180.479 260.317 180.71 260.12 181.004 259.973C181.297 259.819 181.627 259.734 181.993 259.717ZM190.75 262.048C190.76 262.247 190.755 262.428 190.735 262.589L186.69 262.775C186.741 263.173 186.895 263.479 187.152 263.695C187.409 263.91 187.717 264.009 188.077 263.992C188.596 263.969 188.956 263.728 189.155 263.272L190.663 263.203C190.528 263.743 190.242 264.197 189.805 264.564C189.368 264.924 188.819 265.12 188.16 265.15C187.627 265.174 187.143 265.08 186.706 264.866C186.275 264.646 185.93 264.325 185.67 263.903C185.417 263.481 185.278 262.987 185.252 262.42C185.225 261.848 185.319 261.34 185.532 260.896C185.745 260.452 186.056 260.104 186.465 259.852C186.874 259.6 187.351 259.461 187.897 259.436C188.424 259.412 188.898 259.503 189.322 259.711C189.752 259.918 190.089 260.226 190.335 260.635C190.587 261.037 190.726 261.508 190.75 262.048ZM189.284 261.715C189.26 261.355 189.117 261.075 188.855 260.873C188.591 260.665 188.277 260.57 187.91 260.586C187.564 260.602 187.276 260.722 187.046 260.947C186.822 261.164 186.693 261.46 186.656 261.835L189.284 261.715ZM191.417 262.137C191.391 261.564 191.484 261.06 191.698 260.623C191.911 260.179 192.219 259.831 192.621 259.579C193.023 259.321 193.49 259.179 194.023 259.154C194.709 259.123 195.283 259.27 195.745 259.596C196.213 259.915 196.539 260.38 196.72 260.993L195.212 261.062C195.121 260.826 194.976 260.646 194.776 260.521C194.584 260.39 194.347 260.331 194.068 260.344C193.668 260.362 193.358 260.523 193.139 260.827C192.919 261.124 192.821 261.539 192.846 262.072C192.87 262.598 193.005 263.002 193.252 263.284C193.498 263.56 193.821 263.688 194.22 263.67C194.787 263.644 195.145 263.374 195.294 262.86L196.803 262.791C196.677 263.397 196.396 263.887 195.959 264.261C195.523 264.635 194.965 264.837 194.286 264.868C193.753 264.893 193.275 264.798 192.851 264.584C192.427 264.363 192.089 264.045 191.836 263.63C191.583 263.207 191.443 262.71 191.417 262.137ZM201.19 264.461L199.203 262.19L199.312 264.547L197.913 264.612L197.573 257.219L198.972 257.155L199.165 261.361L200.915 258.928L202.733 258.844L200.424 261.733L203.008 264.378L201.19 264.461ZM205.229 257.168L205.291 262L204.112 262.054L203.721 257.237L205.229 257.168ZM204.839 264.364C204.586 264.375 204.373 264.308 204.199 264.163C204.032 264.01 203.943 263.817 203.932 263.584C203.922 263.351 203.993 263.154 204.145 262.994C204.305 262.826 204.511 262.737 204.764 262.725C205.01 262.714 205.217 262.785 205.384 262.937C205.551 263.083 205.64 263.272 205.65 263.505C205.661 263.738 205.59 263.939 205.438 264.106C205.285 264.266 205.085 264.352 204.839 264.364Z" fill="#050505"/>
<path d="M165.706 259.581C166.053 259.116 166.711 259.019 167.178 259.365C167.644 259.712 167.74 260.371 167.394 260.837L162.999 266.742L161.311 265.487L165.706 259.581Z" fill="#FA9531"/>
<path d="M164.255 265.055L163 266.742L159.624 264.232C159.158 263.885 159.061 263.226 159.408 262.76C159.754 262.294 160.413 262.198 160.879 262.544L164.255 265.055Z" fill="#FA9531"/>
<defs>
<filter id="filter0_d_1002_3911" x="0" y="4" width="563" height="378" filterUnits="userSpaceOnUse" color-interpolation-filters="sRGB">
<feFlood flood-opacity="0" result="BackgroundImageFix"/>
<feColorMatrix in="SourceAlpha" type="matrix" values="0 0 0 0 0 0 0 0 0 0 0 0 0 0 0 0 0 0 127 0" result="hardAlpha"/>
<feOffset dy="4"/>
<feGaussianBlur stdDeviation="18"/>
<feColorMatrix type="matrix" values="0 0 0 0 0 0 0 0 0 0 0 0 0 0 0 0 0 0 0.12 0"/>
<feBlend mode="normal" in2="BackgroundImageFix" result="effect1_dropShadow_1002_3911"/>
<feBlend mode="normal" in="SourceGraphic" in2="effect1_dropShadow_1002_3911" result="shape"/>
</filter>
<filter id="filter1_d_1002_3911" x="331.485" y="266.577" width="74.6527" height="74.6443" filterUnits="userSpaceOnUse" color-interpolation-filters="sRGB">
<feFlood flood-opacity="0" result="BackgroundImageFix"/>
<feColorMatrix in="SourceAlpha" type="matrix" values="0 0 0 0 0 0 0 0 0 0 0 0 0 0 0 0 0 0 127 0" result="hardAlpha"/>
<feOffset dy="4"/>
<feGaussianBlur stdDeviation="12.5"/>
<feColorMatrix type="matrix" values="0 0 0 0 0 0 0 0 0 0 0 0 0 0 0 0 0 0 0.15 0"/>
<feBlend mode="normal" in2="BackgroundImageFix" result="effect1_dropShadow_1002_3911"/>
<feBlend mode="normal" in="SourceGraphic" in2="effect1_dropShadow_1002_3911" result="shape"/>
</filter>
<filter id="filter2_d_1002_3911" x="265.745" y="266.577" width="74.6527" height="74.6443" filterUnits="userSpaceOnUse" color-interpolation-filters="sRGB">
<feFlood flood-opacity="0" result="BackgroundImageFix"/>
<feColorMatrix in="SourceAlpha" type="matrix" values="0 0 0 0 0 0 0 0 0 0 0 0 0 0 0 0 0 0 127 0" result="hardAlpha"/>
<feOffset dy="4"/>
<feGaussianBlur stdDeviation="12.5"/>
<feColorMatrix type="matrix" values="0 0 0 0 0 0 0 0 0 0 0 0 0 0 0 0 0 0 0.15 0"/>
<feBlend mode="normal" in2="BackgroundImageFix" result="effect1_dropShadow_1002_3911"/>
<feBlend mode="normal" in="SourceGraphic" in2="effect1_dropShadow_1002_3911" result="shape"/>
</filter>
<filter id="filter3_d_1002_3911" x="233.36" y="266.577" width="74.6527" height="74.6443" filterUnits="userSpaceOnUse" color-interpolation-filters="sRGB">
<feFlood flood-opacity="0" result="BackgroundImageFix"/>
<feColorMatrix in="SourceAlpha" type="matrix" values="0 0 0 0 0 0 0 0 0 0 0 0 0 0 0 0 0 0 127 0" result="hardAlpha"/>
<feOffset dy="4"/>
<feGaussianBlur stdDeviation="12.5"/>
<feColorMatrix type="matrix" values="0 0 0 0 0 0 0 0 0 0 0 0 0 0 0 0 0 0 0.15 0"/>
<feBlend mode="normal" in2="BackgroundImageFix" result="effect1_dropShadow_1002_3911"/>
<feBlend mode="normal" in="SourceGraphic" in2="effect1_dropShadow_1002_3911" result="shape"/>
</filter>
<filter id="filter4_d_1002_3911" x="364.356" y="266.577" width="74.6527" height="74.6443" filterUnits="userSpaceOnUse" color-interpolation-filters="sRGB">
<feFlood flood-opacity="0" result="BackgroundImageFix"/>
<feColorMatrix in="SourceAlpha" type="matrix" values="0 0 0 0 0 0 0 0 0 0 0 0 0 0 0 0 0 0 127 0" result="hardAlpha"/>
<feOffset dy="4"/>
<feGaussianBlur stdDeviation="12.5"/>
<feColorMatrix type="matrix" values="0 0 0 0 0 0 0 0 0 0 0 0 0 0 0 0 0 0 0.15 0"/>
<feBlend mode="normal" in2="BackgroundImageFix" result="effect1_dropShadow_1002_3911"/>
<feBlend mode="normal" in="SourceGraphic" in2="effect1_dropShadow_1002_3911" result="shape"/>
</filter>
<filter id="filter5_d_1002_3911" x="397.226" y="266.577" width="74.6527" height="74.6443" filterUnits="userSpaceOnUse" color-interpolation-filters="sRGB">
<feFlood flood-opacity="0" result="BackgroundImageFix"/>
<feColorMatrix in="SourceAlpha" type="matrix" values="0 0 0 0 0 0 0 0 0 0 0 0 0 0 0 0 0 0 127 0" result="hardAlpha"/>
<feOffset dy="4"/>
<feGaussianBlur stdDeviation="12.5"/>
<feColorMatrix type="matrix" values="0 0 0 0 0 0 0 0 0 0 0 0 0 0 0 0 0 0 0.15 0"/>
<feBlend mode="normal" in2="BackgroundImageFix" result="effect1_dropShadow_1002_3911"/>
<feBlend mode="normal" in="SourceGraphic" in2="effect1_dropShadow_1002_3911" result="shape"/>
</filter>
<filter id="filter6_d_1002_3911" x="298.615" y="266.577" width="74.6527" height="74.6443" filterUnits="userSpaceOnUse" color-interpolation-filters="sRGB">
<feFlood flood-opacity="0" result="BackgroundImageFix"/>
<feColorMatrix in="SourceAlpha" type="matrix" values="0 0 0 0 0 0 0 0 0 0 0 0 0 0 0 0 0 0 127 0" result="hardAlpha"/>
<feOffset dy="4"/>
<feGaussianBlur stdDeviation="12.5"/>
<feColorMatrix type="matrix" values="0 0 0 0 0 0 0 0 0 0 0 0 0 0 0 0 0 0 0.15 0"/>
<feBlend mode="normal" in2="BackgroundImageFix" result="effect1_dropShadow_1002_3911"/>
<feBlend mode="normal" in="SourceGraphic" in2="effect1_dropShadow_1002_3911" result="shape"/>
</filter>
<filter id="filter7_d_1002_3911" x="433.663" y="81.0791" width="80.8159" height="80.8054" filterUnits="userSpaceOnUse" color-interpolation-filters="sRGB">
<feFlood flood-opacity="0" result="BackgroundImageFix"/>
<feColorMatrix in="SourceAlpha" type="matrix" values="0 0 0 0 0 0 0 0 0 0 0 0 0 0 0 0 0 0 127 0" result="hardAlpha"/>
<feOffset dy="4"/>
<feGaussianBlur stdDeviation="12.5"/>
<feColorMatrix type="matrix" values="0 0 0 0 0 0 0 0 0 0 0 0 0 0 0 0 0 0 0.15 0"/>
<feBlend mode="normal" in2="BackgroundImageFix" result="effect1_dropShadow_1002_3911"/>
<feBlend mode="normal" in="SourceGraphic" in2="effect1_dropShadow_1002_3911" result="shape"/>
</filter>
<filter id="filter8_d_1002_3911" x="456.616" y="104.029" width="35.1594" height="37.887" filterUnits="userSpaceOnUse" color-interpolation-filters="sRGB">
<feFlood flood-opacity="0" result="BackgroundImageFix"/>
<feColorMatrix in="SourceAlpha" type="matrix" values="0 0 0 0 0 0 0 0 0 0 0 0 0 0 0 0 0 0 127 0" result="hardAlpha"/>
<feOffset dy="4"/>
<feGaussianBlur stdDeviation="5"/>
<feColorMatrix type="matrix" values="0 0 0 0 0 0 0 0 0 0 0 0 0 0 0 0 0 0 0.1 0"/>
<feBlend mode="normal" in2="BackgroundImageFix" result="effect1_dropShadow_1002_3911"/>
<feBlend mode="normal" in="SourceGraphic" in2="effect1_dropShadow_1002_3911" result="shape"/>
</filter>
<linearGradient id="paint0_linear_1002_3911" x1="52" y1="198.5" x2="389" y2="198.5" gradientUnits="userSpaceOnUse">
<stop stop-color="#FFBD39"/>
<stop offset="1" stop-color="#FA9531"/>
<stop offset="1" stop-color="#FA9531"/>
</linearGradient>
<linearGradient id="paint1_linear_1002_3911" x1="30" y1="85" x2="66" y2="85" gradientUnits="userSpaceOnUse">
<stop stop-color="#FFBD39"/>
<stop offset="1" stop-color="#FA9531"/>
<stop offset="1" stop-color="#FA9531"/>
</linearGradient>
<linearGradient id="paint2_linear_1002_3911" x1="330.044" y1="369.045" x2="366.044" y2="369.045" gradientUnits="userSpaceOnUse">
<stop stop-color="#FFBD39"/>
<stop offset="1" stop-color="#FA9531"/>
<stop offset="1" stop-color="#FA9531"/>
</linearGradient>
<linearGradient id="paint3_linear_1002_3911" x1="308" y1="40" x2="344" y2="40" gradientUnits="userSpaceOnUse">
<stop stop-color="#FFBD39"/>
<stop offset="1" stop-color="#FA9531"/>
<stop offset="1" stop-color="#FA9531"/>
</linearGradient>
<linearGradient id="paint4_linear_1002_3911" x1="83" y1="359.5" x2="102" y2="359.5" gradientUnits="userSpaceOnUse">
<stop stop-color="#FFBD39"/>
<stop offset="1" stop-color="#FA9531"/>
<stop offset="1" stop-color="#FA9531"/>
</linearGradient>
<linearGradient id="paint5_linear_1002_3911" x1="358" y1="91" x2="366" y2="91" gradientUnits="userSpaceOnUse">
<stop stop-color="#FFBD39"/>
<stop offset="1" stop-color="#FA9531"/>
<stop offset="1" stop-color="#FA9531"/>
</linearGradient>
<linearGradient id="paint6_linear_1002_3911" x1="333" y1="320" x2="341" y2="320" gradientUnits="userSpaceOnUse">
<stop stop-color="#FFBD39"/>
<stop offset="1" stop-color="#FA9531"/>
<stop offset="1" stop-color="#FA9531"/>
</linearGradient>
<linearGradient id="paint7_linear_1002_3911" x1="511" y1="4" x2="519" y2="4" gradientUnits="userSpaceOnUse">
<stop stop-color="#FFBD39"/>
<stop offset="1" stop-color="#FA9531"/>
<stop offset="1" stop-color="#FA9531"/>
</linearGradient>
<linearGradient id="paint8_linear_1002_3911" x1="23" y1="20" x2="31" y2="20" gradientUnits="userSpaceOnUse">
<stop stop-color="#FFBD39"/>
<stop offset="1" stop-color="#FA9531"/>
<stop offset="1" stop-color="#FA9531"/>
</linearGradient>
<linearGradient id="paint9_linear_1002_3911" x1="93" y1="32" x2="101" y2="32" gradientUnits="userSpaceOnUse">
<stop stop-color="#FFBD39"/>
<stop offset="1" stop-color="#FA9531"/>
<stop offset="1" stop-color="#FA9531"/>
</linearGradient>
<linearGradient id="paint10_linear_1002_3911" x1="360.575" y1="290.899" x2="376.673" y2="309.048" gradientUnits="userSpaceOnUse">
<stop stop-color="#FF5515"/>
<stop offset="1" stop-color="#E4470C"/>
</linearGradient>
<linearGradient id="paint11_linear_1002_3911" x1="296.368" y1="289.621" x2="309.143" y2="310.068" gradientUnits="userSpaceOnUse">
<stop stop-color="#00C275"/>
<stop offset="1" stop-color="#00A966"/>
</linearGradient>
<linearGradient id="paint12_linear_1002_3911" x1="263.217" y1="289.877" x2="276.247" y2="309.302" gradientUnits="userSpaceOnUse">
<stop stop-color="#10494D"/>
<stop offset="1" stop-color="#0D3F43"/>
</linearGradient>
<linearGradient id="paint13_linear_1002_3911" x1="392.934" y1="292.688" x2="408.01" y2="309.303" gradientUnits="userSpaceOnUse">
<stop stop-color="#0E8DEA"/>
<stop offset="1" stop-color="#097BCE"/>
</linearGradient>
<linearGradient id="paint14_linear_1002_3911" x1="426.827" y1="291.155" x2="441.903" y2="309.814" gradientUnits="userSpaceOnUse">
<stop stop-color="#1D2B95"/>
<stop offset="1" stop-color="#15217C"/>
</linearGradient>
<linearGradient id="paint15_linear_1002_3911" x1="328.216" y1="291.155" x2="343.292" y2="309.814" gradientUnits="userSpaceOnUse">
<stop stop-color="#161616"/>
<stop offset="1"/>
</linearGradient>
<linearGradient id="paint16_linear_1002_3911" x1="475.098" y1="124.309" x2="78.6006" y2="124.309" gradientUnits="userSpaceOnUse">
<stop stop-color="white"/>
<stop offset="0.583333" stop-color="#212121"/>
</linearGradient>
<linearGradient id="paint17_linear_1002_3911" x1="85.822" y1="266.528" x2="455.881" y2="178.331" gradientUnits="userSpaceOnUse">
<stop stop-color="#00AA66"/>
<stop offset="0.760417" stop-color="#1BC481"/>
<stop offset="1" stop-color="#1EC784" stop-opacity="0"/>
</linearGradient>
<linearGradient id="paint18_linear_1002_3911" x1="85.822" y1="278.851" x2="476.223" y2="184.602" gradientUnits="userSpaceOnUse">
<stop stop-color="#E4470C"/>
<stop offset="0.0001" stop-color="#E4470C"/>
<stop offset="0.760417" stop-color="#FE5515"/>
<stop offset="1" stop-color="#FE5515" stop-opacity="0"/>
</linearGradient>
<linearGradient id="paint19_linear_1002_3911" x1="85.822" y1="283.985" x2="441.971" y2="196.551" gradientUnits="userSpaceOnUse">
<stop stop-color="#087ACE"/>
<stop offset="0.0001" stop-color="#087ACE"/>
<stop offset="0.760417" stop-color="#0E8DEA"/>
<stop offset="1" stop-color="#0E8DEA" stop-opacity="0"/>
</linearGradient>
<linearGradient id="paint20_linear_1002_3911" x1="85.822" y1="291.173" x2="427.947" y2="206.55" gradientUnits="userSpaceOnUse">
<stop stop-color="#15217C"/>
<stop offset="0.0001" stop-color="#1D2B95"/>
<stop offset="0.765625" stop-color="#1D2B95"/>
<stop offset="0.9999" stop-color="#1D2B95" stop-opacity="0.0434783"/>
<stop offset="1" stop-color="#15217D" stop-opacity="0"/>
</linearGradient>
<linearGradient id="paint21_linear_1002_3911" x1="85.8217" y1="256.26" x2="476.222" y2="162.011" gradientUnits="userSpaceOnUse">
<stop stop-color="#0D3F43"/>
<stop offset="0.760417" stop-color="#10484C"/>
<stop offset="1" stop-color="#10484C" stop-opacity="0"/>
</linearGradient>
<linearGradient id="paint22_linear_1002_3911" x1="85.8198" y1="267.555" x2="461.371" y2="172.987" gradientUnits="userSpaceOnUse">
<stop/>
<stop offset="0.760417" stop-color="#161616"/>
<stop offset="1" stop-color="#161616" stop-opacity="0"/>
</linearGradient>
<linearGradient id="paint23_linear_1002_3911" x1="276.093" y1="125.915" x2="276.364" y2="275.255" gradientUnits="userSpaceOnUse">
<stop stop-color="#F9A440" stop-opacity="0.35"/>
<stop offset="1" stop-color="#FFBB39" stop-opacity="0.03"/>
</linearGradient>
<linearGradient id="paint24_linear_1002_3911" x1="77.0879" y1="199.819" x2="475.098" y2="199.819" gradientUnits="userSpaceOnUse">
<stop stop-color="#FFBD39"/>
<stop offset="1" stop-color="#FA9531"/>
<stop offset="1" stop-color="#FA9531"/>
</linearGradient>
<linearGradient id="paint25_linear_1002_3911" x1="420.172" y1="188.487" x2="429.416" y2="188.487" gradientUnits="userSpaceOnUse">
<stop stop-color="#FFBD39"/>
<stop offset="1" stop-color="#FA9531"/>
<stop offset="1" stop-color="#FA9531"/>
</linearGradient>
<linearGradient id="paint26_linear_1002_3911" x1="291.23" y1="236.748" x2="300.475" y2="236.748" gradientUnits="userSpaceOnUse">
<stop stop-color="#FFBD39"/>
<stop offset="1" stop-color="#FA9531"/>
<stop offset="1" stop-color="#FA9531"/>
</linearGradient>
<linearGradient id="paint27_linear_1002_3911" x1="180.293" y1="249.071" x2="189.538" y2="249.071" gradientUnits="userSpaceOnUse">
<stop stop-color="#FFBD39"/>
<stop offset="1" stop-color="#FA9531"/>
<stop offset="1" stop-color="#FA9531"/>
</linearGradient>
<linearGradient id="paint28_linear_1002_3911" x1="463.911" y1="105.93" x2="485.653" y2="126.051" gradientUnits="userSpaceOnUse">
<stop stop-color="#FFBC39"/>
<stop offset="1" stop-color="#F79944"/>
</linearGradient>
<linearGradient id="paint29_linear_1002_3911" x1="460.911" y1="83.5267" x2="457.799" y2="88.0446" gradientUnits="userSpaceOnUse">
<stop stop-color="#FFBD39"/>
<stop offset="1" stop-color="#FA9531"/>
<stop offset="1" stop-color="#FA9531"/>
</linearGradient>
<linearGradient id="paint30_linear_1002_3911" x1="492.426" y1="107.008" x2="489.908" y2="104.524" gradientUnits="userSpaceOnUse">
<stop stop-color="#FFBD39"/>
<stop offset="1" stop-color="#FA9531"/>
<stop offset="1" stop-color="#FA9531"/>
</linearGradient>
<linearGradient id="paint31_linear_1002_3911" x1="8.56073e-09" y1="1.29669" x2="2.59262" y2="1.29669" gradientUnits="userSpaceOnUse">
<stop stop-color="#FFBD39"/>
<stop offset="1" stop-color="#FA9531"/>
<stop offset="1" stop-color="#FA9531"/>
</linearGradient>
<linearGradient id="paint32_linear_1002_3911" x1="498.463" y1="98.9731" x2="499.133" y2="101.477" gradientUnits="userSpaceOnUse">
<stop stop-color="#FFBD39"/>
<stop offset="1" stop-color="#FA9531"/>
<stop offset="1" stop-color="#FA9531"/>
</linearGradient>
<linearGradient id="paint33_linear_1002_3911" x1="472.066" y1="89.7659" x2="493.236" y2="97.4907" gradientUnits="userSpaceOnUse">
<stop stop-color="#FFBD39"/>
<stop offset="1" stop-color="#FA9531"/>
<stop offset="1" stop-color="#FA9531"/>
</linearGradient>
<linearGradient id="paint34_linear_1002_3911" x1="5.19619e-09" y1="0.786628" x2="1.57367" y2="0.786628" gradientUnits="userSpaceOnUse">
<stop stop-color="#FFBD39"/>
<stop offset="1" stop-color="#FA9531"/>
<stop offset="1" stop-color="#FA9531"/>
</linearGradient>
<linearGradient id="paint35_linear_1002_3911" x1="5.19619e-09" y1="0.786628" x2="1.57367" y2="0.786628" gradientUnits="userSpaceOnUse">
<stop stop-color="#FFBD39"/>
<stop offset="1" stop-color="#FA9531"/>
<stop offset="1" stop-color="#FA9531"/>
</linearGradient>
<linearGradient id="paint36_linear_1002_3911" x1="5.19619e-09" y1="0.786628" x2="1.57367" y2="0.786628" gradientUnits="userSpaceOnUse">
<stop stop-color="#FFBD39"/>
<stop offset="1" stop-color="#FA9531"/>
<stop offset="1" stop-color="#FA9531"/>
</linearGradient>
<clipPath id="clip0_1002_3911">
<rect width="10.276" height="9.96586" fill="white" transform="translate(363.644 295.499)"/>
</clipPath>
<clipPath id="clip1_1002_3911">
<rect width="10.3271" height="11.8568" fill="white" transform="translate(396.514 293.965)"/>
</clipPath>
<clipPath id="clip2_1002_3911">
<rect width="20.5439" height="20.5369" fill="white" transform="translate(105.849 138.685)"/>
</clipPath>
<clipPath id="clip3_1002_3911">
<rect width="84.2301" height="65.7181" fill="white" transform="translate(123.312 76.047)"/>
</clipPath>
</defs>
</svg>
